<svg xmlns="http://www.w3.org/2000/svg" width="112" height="112" viewBox="0 0 94 112"><defs><linearGradient id="prefix__a" x1="73.059%" x2="28.226%" y1="100%" y2="5.673%"><stop offset="0%" stop-color="#9E9E9E"/><stop offset="100%" stop-color="#FFF"/></linearGradient><linearGradient id="prefix__b" x1="85.676%" x2="16.312%" y1="77.815%" y2="25.341%"><stop offset="0%" stop-color="#9E9E9E"/><stop offset="100%" stop-color="#FFF"/></linearGradient></defs><g fill="none" fill-rule="evenodd" transform="translate(1 1.086)"><text fill="#000" font-family="PTSerif-Caption, PT Serif Caption" font-size="10" letter-spacing="-.5" opacity=".664" transform="translate(0 3)"><tspan x="6" y="79">RECOMMENDED</tspan> <tspan x="8.445" y="90">BY DOCTORS &amp;</tspan> <tspan x="7.015" y="101">NUTRITIONISTS</tspan></text><g opacity=".6"><path fill="#D0D0D0" d="M45.8 8.79a.965.965 0 0 1-.965-.965v-3.86a.965.965 0 0 1 1.931 0v3.86a.965.965 0 0 1-.965.965"/><path fill="#000" d="M45.8 64.764a.965.965 0 0 1-.965-.965v-3.86a.965.965 0 0 1 1.931 0v3.86a.965.965 0 0 1-.965.965M19.825 34.861h-3.86a.965.965 0 1 1 0-1.93h3.86a.965.965 0 1 1 0 1.93m55.974 0h-3.86a.965.965 0 1 1 0-1.93h3.86a.965.965 0 1 1 0 1.93M23.315 21.819a.956.956 0 0 1-.481-.13L19.49 19.76a.965.965 0 1 1 .965-1.671l3.343 1.93a.964.964 0 0 1-.484 1.801M71.79 49.806a.96.96 0 0 1-.482-.13l-3.343-1.93a.965.965 0 1 1 .965-1.671l3.343 1.93a.965.965 0 0 1-.483 1.801"/><path fill="#D0D0D0" d="M32.855 12.281a.966.966 0 0 1-.837-.482l-1.93-3.343a.965.965 0 1 1 1.671-.965l1.93 3.343a.964.964 0 0 1-.834 1.448"/><path fill="#000" d="M60.841 60.756a.963.963 0 0 1-.836-.483l-1.93-3.343a.964.964 0 1 1 1.671-.965l1.93 3.343a.965.965 0 0 1-.835 1.449m-29.918-.001a.964.964 0 0 1-.835-1.448l1.93-3.343a.964.964 0 1 1 1.671.965l-1.93 3.343a.963.963 0 0 1-.836.483"/><path fill="#D0D0D0" d="M58.91 12.281a.964.964 0 0 1-.835-1.447l1.93-3.343a.965.965 0 1 1 1.671.965l-1.93 3.343a.963.963 0 0 1-.837.482"/><path fill="#000" d="M19.974 49.806a.964.964 0 0 1-.483-1.801l3.343-1.93a.964.964 0 1 1 .965 1.671l-3.343 1.93a.96.96 0 0 1-.482.13"/><path fill="#D0D0D0" d="M68.449 21.819a.964.964 0 0 1-.484-1.801l3.343-1.93a.966.966 0 0 1 .965 1.671l-3.343 1.93a.958.958 0 0 1-.481.13"/><path fill="url(#prefix__a)" d="M31.433 22.848l-3.89 2.247a6.1 6.1 0 0 0-.881.608c-.056.044-.112.09-.168.139l-.081.073c-.058.052-.116.104-.172.158-.01.01-.021.02-.03.031a3.674 3.674 0 0 0-.23.236 4.112 4.112 0 0 0-.216.247 2.97 2.97 0 0 0-.151.185.67.67 0 0 0-.062.081 3.874 3.874 0 0 0-.177.245c-.043.06-.085.124-.122.185a1.404 1.404 0 0 0-.08.126c-.016.027-.034.054-.047.081a4.83 4.83 0 0 0-.303.579 2.849 2.849 0 0 0-.111.25c-.032.076-.061.153-.09.229a4.91 4.91 0 0 0-.102.295l-.867-1.502-4.482-7.76a4.469 4.469 0 0 1-.448-3.41 4.463 4.463 0 0 1 2.093-2.728 4.463 4.463 0 0 1 3.409-.448 4.461 4.461 0 0 1 2.728 2.092l4.48 7.761z" transform="translate(15 3)"/><path fill="url(#prefix__b)" d="M46.68 26.95l-7.764 4.481-1.503.869-.392.226-3.891 2.246a4.47 4.47 0 0 1-3.409.45 4.46 4.46 0 0 1-2.727-2.094 4.465 4.465 0 0 1-.45-3.409 4.464 4.464 0 0 1 2.094-2.727l3.89-2.247.395-.227 1.502-.867 7.761-4.482a4.49 4.49 0 0 1 4.493 7.781" transform="translate(15 3)"/><path fill="#231F20" d="M61.68 29.95l-7.764 4.481-1.503.869-.392.226-3.891 2.246a4.47 4.47 0 0 1-3.409.45 4.46 4.46 0 0 1-2.727-2.094 4.465 4.465 0 0 1-.45-3.409 4.464 4.464 0 0 1 2.094-2.727l3.89-2.247.395-.227 1.502-.867 7.761-4.482a4.49 4.49 0 0 1 4.493 7.781zm-4.083 15.234a4.46 4.46 0 0 1 .448 3.409 4.454 4.454 0 0 1-2.092 2.727 4.499 4.499 0 0 1-6.138-1.643l-4.48-7.763 3.89-2.244 3.89-2.247 4.482 7.761zm-15.254-4.07l-7.76 4.481a4.465 4.465 0 0 1-3.41.448 4.461 4.461 0 0 1-2.728-2.092 4.466 4.466 0 0 1-.448-3.409 4.468 4.468 0 0 1 2.092-2.73l7.763-4.479 2.245 3.89c.056.096.114.19.173.283.06.095.122.185.186.274.06.085.121.166.185.247.017.021.033.043.05.062.056.067.112.135.17.2a6.269 6.269 0 0 0 .456.474l.003.003a5.777 5.777 0 0 0 .508.429c.077.06.156.116.235.172.008.007.016.011.024.015a4.427 4.427 0 0 0 .474.297c.035.023.07.043.105.06.042.025.087.048.13.07.059.03.117.06.175.086.085.043.171.083.26.12a5.691 5.691 0 0 0 .616.229l-1.504.87zM34.171 22.58a4.464 4.464 0 0 1-.448-3.408 4.467 4.467 0 0 1 2.093-2.73 4.472 4.472 0 0 1 3.409-.447 4.461 4.461 0 0 1 2.728 2.092l4.48 7.761-3.89 2.247a6.1 6.1 0 0 0-.881.608c-.056.044-.112.09-.168.139l-.081.073c-.058.052-.116.104-.172.158-.01.01-.021.02-.03.031a3.674 3.674 0 0 0-.23.236 4.112 4.112 0 0 0-.217.247c-.052.06-.102.121-.15.185a.67.67 0 0 0-.062.081 3.874 3.874 0 0 0-.177.245c-.043.06-.085.124-.122.185a1.404 1.404 0 0 0-.08.126c-.016.027-.034.054-.047.081a4.83 4.83 0 0 0-.303.579 2.849 2.849 0 0 0-.111.25c-.032.076-.061.153-.09.229a4.91 4.91 0 0 0-.102.295l-.867-1.502-4.482-7.76zm31.048.14c-1.841-3.191-5.937-4.29-9.127-2.446l-7.763 4.48-4.48-7.761a6.64 6.64 0 0 0-4.057-3.114 6.643 6.643 0 0 0-5.07.668 6.632 6.632 0 0 0-3.114 4.057 6.625 6.625 0 0 0 .668 5.07l4.48 7.762-7.761 4.481a6.639 6.639 0 0 0-3.114 4.058 6.644 6.644 0 0 0 .668 5.07 6.634 6.634 0 0 0 4.057 3.113 6.64 6.64 0 0 0 5.071-.668l7.76-4.48 4.482 7.762a6.64 6.64 0 0 0 4.058 3.113 6.632 6.632 0 0 0 5.07-.668 6.632 6.632 0 0 0 3.113-4.057 6.63 6.63 0 0 0-.668-5.07l-4.481-7.761 7.763-4.482c3.19-1.841 4.287-5.937 2.445-9.128z"/></g><path stroke="#797979" stroke-linecap="square" d="M.5 67.586h91"/><rect width="92" height="110" stroke="#797979" rx="3"/></g></svg>