<svg id="Capa_1" enable-background="new 0 0 512 512" height="512" viewBox="0 0 512 512" width="512" xmlns="http://www.w3.org/2000/svg"><circle cx="256" cy="260" r="50"/><path d="m502.666 204.174c-12.445-12.445-32.622-12.445-45.067 0l-131.072 131.072c-3.984 3.984-9.388 6.223-15.022 6.223h-111.01c-5.635 0-11.038-2.238-15.022-6.223l-131.072-131.072c-12.445-12.445-32.622-12.445-45.067 0-12.445 12.445-12.445 32.622 0 45.067l151.065 151.065v111.031l191.203.663v-111.694l151.065-151.065c12.444-12.445 12.444-32.622-.001-45.067z"/><path d="m203.138 110.662-7.459 43.491c-.965 5.627 1.349 11.314 5.968 14.671 4.618 3.354 10.742 3.799 15.797 1.142l39.057-20.534 39.057 20.534c2.195 1.153 4.592 1.723 6.979 1.723 3.11 0 6.205-.966 8.818-2.864 4.619-3.356 6.933-9.044 5.968-14.671l-7.459-43.491 31.598-30.801c4.089-3.985 5.561-9.946 3.796-15.376-1.764-5.431-6.458-9.389-12.108-10.209l-43.668-6.346-19.531-39.57c-2.527-5.12-7.741-8.361-13.451-8.361s-10.924 3.241-13.451 8.361l-19.528 39.569-43.668 6.346c-5.65.82-10.345 4.778-12.108 10.209-1.765 5.43-.293 11.391 3.796 15.376z"/></svg>