<svg xmlns="http://www.w3.org/2000/svg" viewBox="0 0 200.18 200.17"><defs><style>.cls-1{fill:#7f3f98;}</style></defs><title>Asset 2</title><g id="Layer_2" data-name="Layer 2"><g id="Layer_1-2" data-name="Layer 1"><path class="cls-1" d="M103.7,78.76a4,4,0,1,0-6.55,0A3.91,3.91,0,0,0,103.7,78.76Zm-6.57-4.39a4,4,0,1,1,0,4.38A3.94,3.94,0,0,1,97.13,74.37ZM87.66,90l12.84,12.84,12.74-12.75a18.84,18.84,0,0,0,1.89-24.72,18.59,18.59,0,0,0-29.53-.09C79.9,72.68,81,83.32,87.66,90Zm6.62-6.82a9.25,9.25,0,0,1-1.23-11.85,9,9,0,0,1,14.67,0,9.24,9.24,0,0,1-1.13,11.89l-6.13,6.13Zm2.87-4.41a3.92,3.92,0,1,1,6.55,0A3.93,3.93,0,0,1,97.15,78.75Zm23.77,12.33,12.82,12.83c6.64,6.64,7.76,17.27,2.1,24.7a18.43,18.43,0,0,1-10.35,6.76c.21.86.43,1.73.71,2.59l-4.33,4.33q-1.12-3.28-1.88-6.41a18.82,18.82,0,0,1-12.06-5.48,18.55,18.55,0,0,1-.1-26.23ZM120,106.81s0,0,0,0c.12-.57.25-1.11.36-1.64l-5.58,5.59a9.2,9.2,0,0,0-1,12.07,8.9,8.9,0,0,0,4.56,3.15A57.08,57.08,0,0,1,120,106.81Zm5.17,2a52.72,52.72,0,0,0-1.3,17.12,9.08,9.08,0,0,0,5-4.11,9.23,9.23,0,0,0-1.7-11ZM83.27,120.62a5.56,5.56,0,0,0,0-7.85v0l-1.91,1.92h0a2.84,2.84,0,0,1,0,4Zm-4-30.28,13.21,13.22A18.57,18.57,0,1,1,64.77,128.2a18.91,18.91,0,0,1,1.7-25.07Zm0,13.57-6.17,6.17a9.16,9.16,0,0,0-1.41,11.39,9,9,0,1,0,14-11.16Zm2,10.76h0a2.84,2.84,0,0,1,0,4l1.93,1.93a5.56,5.56,0,0,0,0-7.85v0Zm2,6,0,0m-1.94-6h0a2.84,2.84,0,0,1,0,4l1.93,1.93a5.56,5.56,0,0,0,0-7.85v0ZM100.09,0A100.09,100.09,0,1,0,200.18,100.08,100.21,100.21,0,0,0,100.09,0Zm0,197.17a97.09,97.09,0,1,1,97.09-97.09A97.2,97.2,0,0,1,100.09,197.17Zm0-162A65.91,65.91,0,1,0,166,101.08,66,66,0,0,0,100.09,35.18Zm0,128.81A62.91,62.91,0,1,1,163,101.08,63,63,0,0,1,100.09,164Zm19-150.9,3.81,1.07-2.94,10.45,6.43,1.81-.85,3-10.24-2.88Zm15.21,19.7a7.06,7.06,0,0,1-1.05-3.66,7.45,7.45,0,0,1,3.85-6.41,7.05,7.05,0,0,1,3.72-.8A9,9,0,0,1,147.61,26a7.16,7.16,0,0,1-6.52,10.87,8.4,8.4,0,0,1-3.91-1.25A8.21,8.21,0,0,1,134.25,32.79Zm6.52.61a3.59,3.59,0,0,0,1.9-.51,4.67,4.67,0,0,0,2.15-3.58,3.64,3.64,0,0,0-.44-1.91,3.94,3.94,0,0,0-3.3-2,3.58,3.58,0,0,0-1.89.51A4.66,4.66,0,0,0,137,29.52a3.53,3.53,0,0,0,.44,1.9,3.71,3.71,0,0,0,1.39,1.42A3.8,3.8,0,0,0,140.77,33.4Zm10.88,12.26a7,7,0,0,1,0-3.77,7.21,7.21,0,0,1,2.08-3.3,7.09,7.09,0,0,1,3.43-1.82A6.84,6.84,0,0,1,161,37a8.2,8.2,0,0,1,3.37,2.26,8.46,8.46,0,0,1,1.86,3,6.65,6.65,0,0,1,.31,3.21l-3.39-.29a4.21,4.21,0,0,0-2.79-4.68,3.51,3.51,0,0,0-2,0,4.4,4.4,0,0,0-1.86,1.06,4.49,4.49,0,0,0-1.2,1.79,3.48,3.48,0,0,0-.09,2,4,4,0,0,0,1,1.82,4.14,4.14,0,0,0,3.45,1.3l0,3.4a6.49,6.49,0,0,1-3.18-.54,8.38,8.38,0,0,1-2.85-2.07A8.24,8.24,0,0,1,151.65,45.66Zm16.63,20.07-2.72-5.26-2.92.27-1.85-3.59,15.27-.94,1.79,3.47-9.59,11.93L166.37,68Zm2.06-2.37,3.16-3.66-4.81.46Zm13.24,11.12.84,3.87-10.6,2.32,1.42,6.52-3.07.67L169.9,77.47ZM18.38,80.75l3,.65,1.33-6,3,.65-1.32,6,4.68,1L28.22,87,14.54,84l2.35-10.73,3,.66Zm14-18.09-1,1.92,3.3,1.7-1.81,3.53L20.42,63.39l2.94-5.69a8.06,8.06,0,0,1,2.07-2.64,4.72,4.72,0,0,1,5.38-.51,4.86,4.86,0,0,1,2,1.84A4.79,4.79,0,0,1,33.48,59l5.3-.67-1.94,3.77Zm-5-4.7A2.68,2.68,0,0,0,26,59.35L25,61.3l3.65,1.88,1-2A2.74,2.74,0,0,0,30,59.35,2.15,2.15,0,0,0,27.34,58ZM48.13,42.47l2.26,2.06-7.55,8.32L32.47,43.44l7.38-8.13,2.27,2.06L37.37,42.6l1.75,1.58,4.18-4.6,2.19,2-4.18,4.6,1.9,1.72Zm9.11-3.59a8.23,8.23,0,0,1-2.78.5l-.53-3.16a8.77,8.77,0,0,0,4.62-1.39c1.26-.84,1.69-1.58,1.27-2.21a.94.94,0,0,0-1-.38,11.33,11.33,0,0,0-2.08.64,21.49,21.49,0,0,1-2.61.85,4.47,4.47,0,0,1-2.21,0A3.43,3.43,0,0,1,50,32.17a4,4,0,0,1-.69-2.31,4.66,4.66,0,0,1,.85-2.52A8.75,8.75,0,0,1,52.65,25a12.45,12.45,0,0,1,2.44-1.24,8.28,8.28,0,0,1,2.47-.54l.61,3.13a8.15,8.15,0,0,0-3.84,1.23,3.34,3.34,0,0,0-1.24,1.24,1.07,1.07,0,0,0,0,1.06.91.91,0,0,0,1,.35,12,12,0,0,0,2-.65,17.62,17.62,0,0,1,2.61-.85,4.55,4.55,0,0,1,2.2,0,3.34,3.34,0,0,1,1.92,1.5,3.91,3.91,0,0,1,.67,2.29A4.8,4.8,0,0,1,62.73,35a8.57,8.57,0,0,1-2.5,2.38A13.39,13.39,0,0,1,57.24,38.88ZM79.57,13.32l4.34,13.31-3.76,1.23-1.7-5.19-5.13,1.67L75,29.53l-3.76,1.23L66.9,17.46l3.77-1.23,1.63,5,5.13-1.68-1.63-5ZM17.74,132.46a8.12,8.12,0,0,1-.1-2.83l3.2-.07a8.41,8.41,0,0,0,0,2.4,8.16,8.16,0,0,0,.7,2.37c.64,1.38,1.31,1.9,2,1.58a1,1,0,0,0,.53-1,11.71,11.71,0,0,0-.34-2.15,19.55,19.55,0,0,1-.46-2.7,4.42,4.42,0,0,1,.35-2.18,3.4,3.4,0,0,1,1.78-1.67,4,4,0,0,1,2.39-.35,4.64,4.64,0,0,1,2.36,1.2,8.55,8.55,0,0,1,2,2.83,11.78,11.78,0,0,1,.87,2.59,7.9,7.9,0,0,1,.18,2.52l-3.18.15a8.12,8.12,0,0,0-.67-4,3.22,3.22,0,0,0-1.05-1.41,1.05,1.05,0,0,0-1.05-.1.91.91,0,0,0-.49.94,11.51,11.51,0,0,0,.35,2.11,18.65,18.65,0,0,1,.47,2.71,4.52,4.52,0,0,1-.35,2.17,3.26,3.26,0,0,1-1.76,1.68,3.94,3.94,0,0,1-2.36.34,4.81,4.81,0,0,1-2.37-1.21,8.43,8.43,0,0,1-2-2.82A13,13,0,0,1,17.74,132.46ZM28.49,149.1a6.45,6.45,0,0,1,2.66-4.37l6-4.87,2.49,3.08-6,4.79c-1.74,1.41-2.06,2.81-.94,4.19s2.53,1.35,4.27-.06l5.95-4.8,2.45,3-6,4.87a6.44,6.44,0,0,1-4.84,1.68,6.64,6.64,0,0,1-4.37-2.71A6.58,6.58,0,0,1,28.49,149.1Zm14.6,17.39A8.23,8.23,0,0,1,41.7,164l2.81-1.53a8.7,8.7,0,0,0,1.12,2.12,8.06,8.06,0,0,0,1.71,1.78c1.21.93,2,1.09,2.5.48a1,1,0,0,0,0-1.1A12.72,12.72,0,0,0,48.58,164a19,19,0,0,1-1.65-2.19,4.29,4.29,0,0,1-.69-2.1,3.4,3.4,0,0,1,.81-2.3A4,4,0,0,1,49,156a4.66,4.66,0,0,1,2.65,0,8.45,8.45,0,0,1,3.07,1.59,12.22,12.22,0,0,1,2,1.9A8.05,8.05,0,0,1,58,161.65l-2.75,1.59A8.09,8.09,0,0,0,52.84,160a3.19,3.19,0,0,0-1.58-.77,1.08,1.08,0,0,0-1,.39.91.91,0,0,0,0,1.06,11.51,11.51,0,0,0,1.28,1.71,18.61,18.61,0,0,1,1.66,2.19,4.55,4.55,0,0,1,.69,2.1,3.29,3.29,0,0,1-.79,2.3,3.94,3.94,0,0,1-1.94,1.38,4.78,4.78,0,0,1-2.66,0,8.58,8.58,0,0,1-3.07-1.58A12.76,12.76,0,0,1,43.09,166.49ZM65,168l-3.89-1.82,1.33-2.85,11.36,5.31-1.33,2.85-3.88-1.81L64,179.54l-3.59-1.68Zm20,15.08-5.79-1.22-1.64,2.44-3.95-.83,8.93-12.43,3.81.8,3.19,15-4-.85ZM84.46,180l-.83-4.76-2.69,4Zm12.76-7,4,.11-.37,14-4-.11Zm23.53-2.49,2.6,13.76-3.2.6-7.46-6.18,1.38,7.33-3.81.72L107.66,173l3.2-.6,7.46,6.18-1.38-7.33Zm19.71,3.94-5.33,2.58.19,2.93-3.64,1.76-.53-15.29,3.51-1.7,11.68,9.9-3.71,1.79Zm-2.32-2.12-3.57-3.25.33,4.82Zm21-15.34a3.42,3.42,0,0,1,1.92,1.19,3.23,3.23,0,0,1,.71,3.12,7.54,7.54,0,0,1-2.6,3.54l-5.75,4.91-9.09-10.65,5.44-4.65a7,7,0,0,1,3.75-1.89,3.08,3.08,0,0,1,2.8,1.12,3.35,3.35,0,0,1,.79,1.68,3.43,3.43,0,0,1-.25,1.85A3.87,3.87,0,0,1,159.1,157Zm-10,1.74,1.75,2.05,2.07-1.76c1-.87,1.23-1.65.64-2.34s-1.38-.58-2.39.28Zm8.56,1.71c-.62-.72-1.45-.63-2.51.27l-2.52,2.16,1.84,2.16L157,162.9Q158.61,161.55,157.69,160.47ZM158.2,146l2.35-3.19,8.75,6.42,3.95-5.38,2.53,1.86-6.29,8.57ZM181.62,127l2.81,1.23-4.53,10.29-12.81-5.63,4.41-10.06,2.81,1.24-2.85,6.46,2.16,1,2.51-5.7,2.71,1.2-2.51,5.69,2.35,1ZM103.15,16.64a3.06,3.06,0,1,1-3.06-3.06A3.06,3.06,0,0,1,103.15,16.64ZM22.62,107.49a3.06,3.06,0,1,1-3.06-3.06A3.06,3.06,0,0,1,22.62,107.49Zm162-2.24a3.06,3.06,0,1,1-3.06-3.06A3.06,3.06,0,0,1,184.58,105.25Z"/></g></g></svg>