<svg xmlns="http://www.w3.org/2000/svg" width="120" height="65" viewBox="0 0 120 65"><g fill="none" fill-rule="evenodd"><circle cx="28.516" cy="57.452" r="7.548" fill="#000"/><circle cx="83.766" cy="57.452" r="7.548" fill="#000"/><circle cx="28.516" cy="57.452" r="5.032" fill="#2B2B2B"/><circle cx="83.766" cy="57.452" r="5.032" fill="#2B2B2B"/><path fill="#9046AF" d="M31.242 13.419h48.016v40.914H31.242z"/><path fill="#535353" d="M31.452 53.677h85.967a2.516 2.516 0 0 1 0 5.033H31.452v-5.033z"/><circle cx="46.968" cy="57.452" r="7.548" fill="#000"/><circle cx="46.968" cy="57.452" r="5.032" fill="#2B2B2B"/><path fill="#EF9973" d="M79.258 21.387h12.53a23 23 0 0 1 18.389 9.185l3.05 4.06a23 23 0 0 1 4.612 13.815v5.23h-38.58v-32.29z"/><path fill="#F45C5C" d="M110.919 46.548h6.919v3.355h-6.919z"/><path fill="#EE7C7C" d="M31.347 46.548h6.919v3.355h-6.919z"/><path fill="#CFEFFC" d="M88.694 24.742h4.462a15.818 15.818 0 0 1 13.051 6.88l3.245 4.737a8.382 8.382 0 0 1 1.467 4.738H88.694V24.742z" opacity=".706"/><path fill="#4A1C63" d="M11.323 0h47.806v13.419H11.323z"/><path fill="#7E3797" d="M0 2.516h20.129l11.323 10.903H11.323zm41.935.419h47.807L79.258 13.419H31.452z"/><path fill="#61287F" d="M11.218 13.419h20.129v40.914H11.218z"/><path fill="#CD4444" d="M26.734 46.548h4.613v3.355h-4.613zm-16.25 0h4.613v3.355h-4.613z"/><path fill="#D57D55" d="M83.032 21.387h-3.774v32.29h3.774z"/><circle cx="102.218" cy="57.452" r="7.548" fill="#000"/><circle cx="102.218" cy="57.452" r="5.032" fill="#2B2B2B"/><path fill="#1B1B1B" d="M31.452 53.677H11.91a2.516 2.516 0 0 0 0 5.033h19.542v-5.033z"/></g></svg>